<svg width="140" height="20" viewBox="0 0 140 20" fill="none" xmlns="http://www.w3.org/2000/svg">
<g id="Clean Cruiz LOGO 2">
<path id="Vector" d="M0.0170288 9.61061C0.0170288 8.54002 0.217626 7.48591 0.61882 6.44826C1.03673 5.41061 1.63852 4.48002 2.42419 3.65649C3.20986 2.83297 4.1627 2.16591 5.2827 1.65532C6.4027 1.14473 7.68149 0.889435 9.1191 0.889435C10.8409 0.889435 12.3287 1.24355 13.5824 1.95179C14.8528 2.64355 15.7973 3.56591 16.4158 4.71885L12.6797 7.33767C12.5125 6.90944 12.2869 6.55532 12.0027 6.27532C11.7352 5.99532 11.4343 5.77296 11.1 5.60826C10.7657 5.44355 10.4146 5.32826 10.0469 5.26238C9.69582 5.19649 9.35313 5.16355 9.0188 5.16355C8.31671 5.16355 7.70657 5.30355 7.18836 5.58355C6.68688 5.84708 6.26897 6.2012 5.93464 6.64591C5.61703 7.07414 5.37464 7.56826 5.20747 8.12826C5.05703 8.67179 4.9818 9.21532 4.9818 9.75885C4.9818 10.3683 5.07374 10.953 5.25762 11.513C5.4415 12.073 5.70897 12.5671 6.06001 12.9953C6.41106 13.4236 6.83733 13.7694 7.3388 14.033C7.85701 14.28 8.43373 14.4036 9.06895 14.4036C9.40328 14.4036 9.74597 14.3706 10.097 14.3047C10.4481 14.2224 10.7824 14.0988 11.1 13.9341C11.4343 13.753 11.7269 13.5306 11.9776 13.2671C12.2451 12.9871 12.454 12.6494 12.6045 12.2541L16.5913 14.6012C16.3239 15.2436 15.9143 15.82 15.3627 16.3306C14.8278 16.8412 14.2093 17.2694 13.5072 17.6153C12.8218 17.9612 12.0779 18.2247 11.2755 18.4059C10.4898 18.5871 9.72089 18.6777 8.96865 18.6777C7.64806 18.6777 6.43613 18.4224 5.33285 17.9118C4.24628 17.3847 3.3018 16.693 2.49942 15.8365C1.71374 14.98 1.10359 14.0083 0.668969 12.9212C0.234342 11.8341 0.0170288 10.7306 0.0170288 9.61061ZM17.9054 0.494141H22.6696V13.3659C22.6696 14.3541 23.0791 14.8483 23.8982 14.8483C24.0988 14.8483 24.3161 14.8153 24.5502 14.7494C24.7842 14.6836 25.0015 14.593 25.2021 14.4777L25.8039 17.9365C25.2355 18.2 24.592 18.4059 23.8732 18.5541C23.1711 18.7024 22.5024 18.7765 21.8672 18.7765C20.5967 18.7765 19.6188 18.4553 18.9335 17.813C18.2481 17.1706 17.9054 16.24 17.9054 15.0212V0.494141ZM33.4133 18.7765C32.2598 18.7765 31.2318 18.6036 30.3291 18.2577C29.4264 17.8953 28.6658 17.4094 28.0473 16.8C27.4455 16.1906 26.9858 15.4906 26.6682 14.7C26.3506 13.9094 26.1918 13.0777 26.1918 12.2047C26.1918 11.2659 26.3422 10.3765 26.6431 9.53649C26.9607 8.69649 27.4204 7.96355 28.0222 7.33767C28.6407 6.71179 29.393 6.21767 30.279 5.85532C31.1816 5.47649 32.2264 5.28708 33.4133 5.28708C34.5834 5.28708 35.6198 5.47649 36.5225 5.85532C37.4252 6.21767 38.1775 6.71179 38.7792 7.33767C39.3978 7.94708 39.8575 8.66355 40.1584 9.48708C40.476 10.2941 40.6348 11.1424 40.6348 12.0318C40.6348 12.2788 40.6181 12.5341 40.5846 12.7977C40.5679 13.0447 40.5428 13.2671 40.5094 13.4647H31.2569C31.307 14.1565 31.5661 14.6588 32.0342 14.9718C32.5022 15.2683 33.0121 15.4165 33.5637 15.4165C34.0819 15.4165 34.5667 15.3012 35.0181 15.0706C35.4861 14.84 35.7954 14.5188 35.9458 14.1071L39.9828 15.2436C39.4479 16.2812 38.6204 17.1294 37.5004 17.7883C36.3972 18.4471 35.0348 18.7765 33.4133 18.7765ZM35.5195 10.6483C35.436 10.0224 35.2019 9.52826 34.8175 9.16591C34.433 8.80355 33.9398 8.62238 33.3381 8.62238C32.7363 8.62238 32.2431 8.80355 31.8587 9.16591C31.4742 9.52826 31.2401 10.0224 31.1566 10.6483H35.5195ZM46.0854 18.7765C45.4334 18.7765 44.8233 18.6694 44.2549 18.4553C43.6866 18.2412 43.1934 17.953 42.7755 17.5906C42.3743 17.2118 42.0567 16.7671 41.8227 16.2565C41.5886 15.7459 41.4716 15.1941 41.4716 14.6012C41.4716 13.9424 41.6137 13.3412 41.8979 12.7977C42.1821 12.2541 42.5749 11.7847 43.0764 11.3894C43.5779 10.9941 44.1713 10.6894 44.8567 10.4753C45.5588 10.2612 46.3278 10.1541 47.1636 10.1541C48.2334 10.1541 49.1194 10.3188 49.8215 10.6483V10.253C49.8215 9.64355 49.6376 9.19061 49.2698 8.89414C48.9188 8.59767 48.3421 8.44944 47.5397 8.44944C46.7875 8.44944 46.0937 8.57296 45.4585 8.82002C44.8233 9.05061 44.1546 9.39649 43.4525 9.85767L42.0734 6.94238C43.8119 5.83885 45.7928 5.28708 48.0161 5.28708C50.1224 5.28708 51.7439 5.74826 52.8806 6.67061C54.0173 7.59297 54.5857 8.97649 54.5857 10.8212V13.3412C54.5857 13.7859 54.6525 14.0988 54.7863 14.28C54.92 14.4447 55.154 14.5436 55.4883 14.5765V18.5294C55.1039 18.6118 54.7361 18.6694 54.3851 18.7024C54.0507 18.7518 53.7498 18.7765 53.4824 18.7765C52.6298 18.7765 51.9779 18.6283 51.5266 18.3318C51.0919 18.0188 50.8078 17.5659 50.674 16.973L50.5737 16.5036C49.9887 17.2447 49.3116 17.813 48.5427 18.2083C47.7737 18.5871 46.9546 18.7765 46.0854 18.7765ZM47.5146 15.4165C47.7988 15.4165 48.0913 15.3753 48.3922 15.293C48.6931 15.1941 48.9606 15.0706 49.1946 14.9224C49.3785 14.7906 49.5289 14.6506 49.646 14.5024C49.763 14.3377 49.8215 14.173 49.8215 14.0083V13.0447C49.5373 12.9459 49.2281 12.8636 48.8937 12.7977C48.5594 12.7318 48.2585 12.6988 47.991 12.6988C47.406 12.6988 46.9212 12.8388 46.5367 13.1188C46.1522 13.3988 45.96 13.753 45.96 14.1812C45.96 14.5436 46.1021 14.84 46.3863 15.0706C46.6872 15.3012 47.0633 15.4165 47.5146 15.4165ZM70.4736 18.5294H65.7096V11.2165C65.7096 10.5741 65.5592 10.113 65.2583 9.83296C64.9741 9.53649 64.6398 9.38826 64.2553 9.38826C63.8541 9.38826 63.4278 9.5612 62.9765 9.90708C62.5251 10.253 62.1908 10.6977 61.9735 11.2412V18.5294H57.2093V5.53414H61.4971V7.4612C61.9651 6.75296 62.6171 6.21767 63.4529 5.85532C64.3054 5.47649 65.3084 5.28708 66.4618 5.28708C67.3645 5.28708 68.075 5.45179 68.5932 5.7812C69.1281 6.09414 69.5293 6.48944 69.7966 6.96708C70.0808 7.44473 70.2647 7.95532 70.3483 8.49885C70.4319 9.04238 70.4736 9.53649 70.4736 9.9812V18.5294ZM77.7634 9.61061C77.7634 8.54002 77.964 7.48591 78.3652 6.44826C78.7831 5.41061 79.3849 4.48002 80.1706 3.65649C80.9562 2.83297 81.9091 2.16591 83.0291 1.65532C84.1491 1.14473 85.4279 0.889435 86.8655 0.889435C88.5873 0.889435 90.075 1.24355 91.3288 1.95179C92.5992 2.64355 93.5437 3.56591 94.1622 4.71885L90.4261 7.33767C90.2589 6.90944 90.0332 6.55532 89.7491 6.27532C89.4816 5.99532 89.1807 5.77296 88.8464 5.60826C88.512 5.44355 88.161 5.32826 87.7932 5.26238C87.4422 5.19649 87.0995 5.16355 86.7652 5.16355C86.0631 5.16355 85.4529 5.30355 84.9347 5.58355C84.4332 5.84708 84.0153 6.2012 83.681 6.64591C83.3634 7.07414 83.121 7.56826 82.9538 8.12826C82.8034 8.67179 82.7282 9.21532 82.7282 9.75885C82.7282 10.3683 82.8201 10.953 83.004 11.513C83.1879 12.073 83.4553 12.5671 83.8064 12.9953C84.1574 13.4236 84.5837 13.7694 85.0852 14.033C85.6034 14.28 86.1801 14.4036 86.8153 14.4036C87.1497 14.4036 87.4923 14.3706 87.8434 14.3047C88.1944 14.2224 88.5288 14.0988 88.8464 13.9341C89.1807 13.753 89.4732 13.5306 89.724 13.2671C89.9914 12.9871 90.2004 12.6494 90.3509 12.2541L94.3377 14.6012C94.0703 15.2436 93.6607 15.82 93.1091 16.3306C92.5741 16.8412 91.9556 17.2694 91.2535 17.6153C90.5682 17.9612 89.8243 18.2247 89.0219 18.4059C88.2362 18.5871 87.4673 18.6777 86.715 18.6777C85.3944 18.6777 84.1825 18.4224 83.0792 17.9118C81.9926 17.3847 81.0482 16.693 80.2458 15.8365C79.4601 14.98 78.85 14.0083 78.4153 12.9212C77.9807 11.8341 77.7634 10.7306 77.7634 9.61061ZM104.703 9.53649C103.784 9.53649 102.948 9.63532 102.196 9.83296C101.444 10.0306 100.884 10.36 100.516 10.8212V18.5294H95.7516V5.53414H100.115V8.00473C100.583 7.13179 101.159 6.46473 101.845 6.00355C102.547 5.52591 103.299 5.28708 104.102 5.28708C104.419 5.28708 104.62 5.29532 104.703 5.31179V9.53649ZM110.17 18.7765C108.833 18.7765 107.813 18.3812 107.111 17.5906C106.409 16.7836 106.058 15.6141 106.058 14.0824V5.53414H110.822V13.02C110.822 13.5965 110.948 14.0412 111.198 14.3541C111.466 14.6671 111.825 14.8236 112.277 14.8236C112.644 14.8236 113.02 14.7412 113.405 14.5765C113.789 14.4118 114.174 14.0494 114.558 13.4894V5.53414H119.322V13.3412C119.322 13.7859 119.389 14.0988 119.523 14.28C119.657 14.4447 119.891 14.5436 120.225 14.5765V18.5294C119.406 18.6941 118.737 18.7765 118.219 18.7765C116.598 18.7765 115.662 18.1753 115.411 16.973L115.311 16.5036C114.692 17.3106 113.957 17.8953 113.104 18.2577C112.251 18.6036 111.274 18.7765 110.17 18.7765ZM122.173 18.5294V5.53414H126.938V18.5294H122.173ZM122.173 4.44708V0.494141H126.938V4.44708H122.173ZM128.696 15.7624L134.714 8.74591H129.072V5.53414H139.679V8.3012L133.686 15.3177H139.905V18.5294H128.696V15.7624Z" fill="#F36B7F"/>
</g>
</svg>
